<svg xmlns="http://www.w3.org/2000/svg" viewBox="0 0 64 64">
  <defs>
    <linearGradient id="g" x1="0%" y1="0%" x2="100%" y2="100%">
      <stop offset="0%" stop-color="#E04590"/>
      <stop offset="100%" stop-color="#9B2B6F"/>
    </linearGradient>
  </defs>
  <rect width="64" height="64" rx="14" fill="url(#g)"/>
  <path d="M32 48c-1 0-2-0.4-2.7-1.1L16.5 34.1c-3.4-3.4-3.4-9 0-12.4 3.4-3.4 9-3.4 12.4 0L32 24.7l3.1-3c3.4-3.4 9-3.4 12.4 0 3.4 3.4 3.4 9 0 12.4L34.7 46.9c-0.7 0.7-1.7 1.1-2.7 1.1z" fill="white"/>
  <path d="M18 32 L25 32 L27 27 L30 37 L34 30 L46 30" stroke="#E04590" stroke-width="2.5" fill="none" stroke-linecap="round" stroke-linejoin="round"/>
</svg>
